<svg width="191" height="46" viewBox="0 0 191 46" fill="none" xmlns="http://www.w3.org/2000/svg">
<path d="M9 15.5C13.1423 15.5 16.5 18.8578 16.5 23C16.5 27.1423 13.1423 30.5 9 30.5C4.85775 30.5 1.5 27.1423 1.5 23C1.5 18.8578 4.85775 15.5 9 15.5ZM9 17C7.4087 17 5.88258 17.6321 4.75736 18.7574C3.63214 19.8826 3 21.4087 3 23C3 24.5913 3.63214 26.1174 4.75736 27.2426C5.88258 28.3679 7.4087 29 9 29C10.5913 29 12.1174 28.3679 13.2426 27.2426C14.3679 26.1174 15 24.5913 15 23C15 21.4087 14.3679 19.8826 13.2426 18.7574C12.1174 17.6321 10.5913 17 9 17ZM9 19.25C9.78944 19.2503 10.5586 19.4997 11.198 19.9628C11.8374 20.4258 12.3144 21.0788 12.561 21.8287C12.8075 22.5787 12.8112 23.3873 12.5713 24.1394C12.3314 24.8915 11.8603 25.5488 11.2251 26.0175C10.5898 26.4862 9.82289 26.7425 9.03349 26.7498C8.24408 26.7572 7.47249 26.5152 6.82864 26.0584C6.18479 25.6016 5.70153 24.9533 5.4477 24.2057C5.19388 23.4582 5.18243 22.6497 5.415 21.8953C5.59044 22.2873 5.89521 22.6072 6.27829 22.8014C6.66138 22.9956 7.09954 23.0523 7.51946 22.9621C7.93938 22.8719 8.31557 22.6402 8.58508 22.3057C8.85459 21.9713 9.00107 21.5545 9 21.125C9.0001 20.7639 8.8959 20.4104 8.69992 20.107C8.50394 19.8037 8.22452 19.5634 7.89525 19.415C8.24475 19.3077 8.61525 19.25 9 19.25Z" fill="#FEFEFE"/>
<path d="M37.228 18.27C38.264 18.27 39.1693 18.4707 39.944 18.872C40.728 19.264 41.33 19.8333 41.75 20.58C42.1793 21.3173 42.394 22.1807 42.394 23.17C42.394 24.1593 42.1793 25.018 41.75 25.746C41.33 26.474 40.728 27.034 39.944 27.426C39.1693 27.8087 38.264 28 37.228 28H34.05V18.27H37.228ZM37.228 26.698C38.3667 26.698 39.2393 26.39 39.846 25.774C40.4527 25.158 40.756 24.29 40.756 23.17C40.756 22.0407 40.4527 21.1587 39.846 20.524C39.2393 19.8893 38.3667 19.572 37.228 19.572H35.646V26.698H37.228ZM43.4438 24.108C43.4438 23.3333 43.6024 22.6473 43.9198 22.05C44.2464 21.4527 44.6851 20.9907 45.2358 20.664C45.7958 20.328 46.4118 20.16 47.0838 20.16C47.6904 20.16 48.2178 20.2813 48.6658 20.524C49.1231 20.7573 49.4871 21.0513 49.7578 21.406V20.286H51.3678V28H49.7578V26.852C49.4871 27.216 49.1184 27.5193 48.6518 27.762C48.1851 28.0047 47.6531 28.126 47.0558 28.126C46.3931 28.126 45.7864 27.958 45.2358 27.622C44.6851 27.2767 44.2464 26.8007 43.9198 26.194C43.6024 25.578 43.4438 24.8827 43.4438 24.108ZM49.7578 24.136C49.7578 23.604 49.6458 23.142 49.4218 22.75C49.2071 22.358 48.9224 22.0593 48.5678 21.854C48.2131 21.6487 47.8304 21.546 47.4198 21.546C47.0091 21.546 46.6264 21.6487 46.2718 21.854C45.9171 22.05 45.6278 22.344 45.4038 22.736C45.1891 23.1187 45.0818 23.576 45.0818 24.108C45.0818 24.64 45.1891 25.1067 45.4038 25.508C45.6278 25.9093 45.9171 26.2173 46.2718 26.432C46.6358 26.6373 47.0184 26.74 47.4198 26.74C47.8304 26.74 48.2131 26.6373 48.5678 26.432C48.9224 26.2267 49.2071 25.928 49.4218 25.536C49.6458 25.1347 49.7578 24.668 49.7578 24.136ZM56.2641 28.126C55.6574 28.126 55.1114 28.0187 54.6261 27.804C54.1501 27.58 53.7721 27.2813 53.4921 26.908C53.2121 26.5253 53.0627 26.1007 53.0441 25.634H54.6961C54.7241 25.9607 54.8781 26.236 55.1581 26.46C55.4474 26.6747 55.8067 26.782 56.2361 26.782C56.6841 26.782 57.0294 26.698 57.2721 26.53C57.5241 26.3527 57.6501 26.1287 57.6501 25.858C57.6501 25.5687 57.5101 25.354 57.2301 25.214C56.9594 25.074 56.5254 24.92 55.9281 24.752C55.3494 24.5933 54.8781 24.4393 54.5141 24.29C54.1501 24.1407 53.8327 23.912 53.5621 23.604C53.3007 23.296 53.1701 22.89 53.1701 22.386C53.1701 21.9753 53.2914 21.602 53.5341 21.266C53.7767 20.9207 54.1221 20.65 54.5701 20.454C55.0274 20.258 55.5501 20.16 56.1381 20.16C57.0154 20.16 57.7201 20.384 58.2521 20.832C58.7934 21.2707 59.0827 21.8727 59.1201 22.638H57.5241C57.4961 22.2927 57.3561 22.0173 57.1041 21.812C56.8521 21.6067 56.5114 21.504 56.0821 21.504C55.6621 21.504 55.3401 21.5833 55.1161 21.742C54.8921 21.9007 54.7801 22.1107 54.7801 22.372C54.7801 22.5773 54.8547 22.75 55.0041 22.89C55.1534 23.03 55.3354 23.142 55.5501 23.226C55.7647 23.3007 56.0821 23.3987 56.5021 23.52C57.0621 23.6693 57.5194 23.8233 57.8741 23.982C58.2381 24.1313 58.5507 24.3553 58.8121 24.654C59.0734 24.9527 59.2087 25.3493 59.2181 25.844C59.2181 26.2827 59.0967 26.6747 58.8541 27.02C58.6114 27.3653 58.2661 27.636 57.8181 27.832C57.3794 28.028 56.8614 28.126 56.2641 28.126ZM64.9326 20.16C65.5206 20.16 66.0432 20.286 66.5006 20.538C66.9672 20.79 67.3312 21.1633 67.5926 21.658C67.8632 22.1527 67.9986 22.75 67.9986 23.45V28H66.4166V23.688C66.4166 22.9973 66.2439 22.47 65.8986 22.106C65.5532 21.7327 65.0819 21.546 64.4846 21.546C63.8872 21.546 63.4112 21.7327 63.0566 22.106C62.7112 22.47 62.5386 22.9973 62.5386 23.688V28H60.9426V17.64H62.5386V21.182C62.8092 20.8553 63.1499 20.6033 63.5606 20.426C63.9806 20.2487 64.4379 20.16 64.9326 20.16ZM71.6304 21.434C71.901 21.0607 72.2697 20.7573 72.7364 20.524C73.2124 20.2813 73.7397 20.16 74.3184 20.16C74.9997 20.16 75.6157 20.3233 76.1664 20.65C76.717 20.9767 77.151 21.4433 77.4684 22.05C77.7857 22.6473 77.9444 23.3333 77.9444 24.108C77.9444 24.8827 77.7857 25.578 77.4684 26.194C77.151 26.8007 76.7124 27.2767 76.1524 27.622C75.6017 27.958 74.9904 28.126 74.3184 28.126C73.721 28.126 73.189 28.0093 72.7224 27.776C72.265 27.5427 71.901 27.244 71.6304 26.88V28H70.0344V17.64H71.6304V21.434ZM76.3204 24.108C76.3204 23.576 76.2084 23.1187 75.9844 22.736C75.7697 22.344 75.4804 22.05 75.1164 21.854C74.7617 21.6487 74.379 21.546 73.9684 21.546C73.567 21.546 73.1844 21.6487 72.8204 21.854C72.4657 22.0593 72.1764 22.358 71.9524 22.75C71.7377 23.142 71.6304 23.604 71.6304 24.136C71.6304 24.668 71.7377 25.1347 71.9524 25.536C72.1764 25.928 72.4657 26.2267 72.8204 26.432C73.1844 26.6373 73.567 26.74 73.9684 26.74C74.379 26.74 74.7617 26.6373 75.1164 26.432C75.4804 26.2173 75.7697 25.9093 75.9844 25.508C76.2084 25.1067 76.3204 24.64 76.3204 24.108ZM82.8687 28.126C82.1407 28.126 81.4827 27.9627 80.8947 27.636C80.3067 27.3 79.8447 26.8333 79.5087 26.236C79.1727 25.6293 79.0047 24.9293 79.0047 24.136C79.0047 23.352 79.1773 22.6567 79.5227 22.05C79.868 21.4433 80.3393 20.9767 80.9367 20.65C81.534 20.3233 82.2013 20.16 82.9387 20.16C83.676 20.16 84.3433 20.3233 84.9407 20.65C85.538 20.9767 86.0093 21.4433 86.3547 22.05C86.7 22.6567 86.8727 23.352 86.8727 24.136C86.8727 24.92 86.6953 25.6153 86.3407 26.222C85.986 26.8287 85.5007 27.3 84.8847 27.636C84.278 27.9627 83.606 28.126 82.8687 28.126ZM82.8687 26.74C83.2793 26.74 83.662 26.642 84.0167 26.446C84.3807 26.25 84.6747 25.956 84.8987 25.564C85.1227 25.172 85.2347 24.696 85.2347 24.136C85.2347 23.576 85.1273 23.1047 84.9127 22.722C84.698 22.33 84.4133 22.036 84.0587 21.84C83.704 21.644 83.3213 21.546 82.9107 21.546C82.5 21.546 82.1173 21.644 81.7627 21.84C81.4173 22.036 81.142 22.33 80.9367 22.722C80.7313 23.1047 80.6287 23.576 80.6287 24.136C80.6287 24.9667 80.8387 25.6107 81.2587 26.068C81.688 26.516 82.2247 26.74 82.8687 26.74ZM87.9184 24.108C87.9184 23.3333 88.0771 22.6473 88.3944 22.05C88.7211 21.4527 89.1597 20.9907 89.7104 20.664C90.2704 20.328 90.8864 20.16 91.5584 20.16C92.1651 20.16 92.6924 20.2813 93.1404 20.524C93.5977 20.7573 93.9617 21.0513 94.2324 21.406V20.286H95.8424V28H94.2324V26.852C93.9617 27.216 93.5931 27.5193 93.1264 27.762C92.6597 28.0047 92.1277 28.126 91.5304 28.126C90.8677 28.126 90.2611 27.958 89.7104 27.622C89.1597 27.2767 88.7211 26.8007 88.3944 26.194C88.0771 25.578 87.9184 24.8827 87.9184 24.108ZM94.2324 24.136C94.2324 23.604 94.1204 23.142 93.8964 22.75C93.6817 22.358 93.3971 22.0593 93.0424 21.854C92.6877 21.6487 92.3051 21.546 91.8944 21.546C91.4837 21.546 91.1011 21.6487 90.7464 21.854C90.3917 22.05 90.1024 22.344 89.8784 22.736C89.6637 23.1187 89.5564 23.576 89.5564 24.108C89.5564 24.64 89.6637 25.1067 89.8784 25.508C90.1024 25.9093 90.3917 26.2173 90.7464 26.432C91.1104 26.6373 91.4931 26.74 91.8944 26.74C92.3051 26.74 92.6877 26.6373 93.0424 26.432C93.3971 26.2267 93.6817 25.928 93.8964 25.536C94.1204 25.1347 94.2324 24.668 94.2324 24.136ZM99.5347 21.406C99.768 21.014 100.076 20.7107 100.459 20.496C100.851 20.272 101.313 20.16 101.845 20.16V21.812H101.439C100.813 21.812 100.337 21.9707 100.011 22.288C99.6933 22.6053 99.5347 23.156 99.5347 23.94V28H97.9387V20.286H99.5347V21.406ZM102.78 24.108C102.78 23.3333 102.938 22.6473 103.256 22.05C103.582 21.4527 104.021 20.9907 104.572 20.664C105.132 20.328 105.752 20.16 106.434 20.16C106.938 20.16 107.432 20.272 107.918 20.496C108.412 20.7107 108.804 21 109.094 21.364V17.64H110.704V28H109.094V26.838C108.832 27.2113 108.468 27.5193 108.002 27.762C107.544 28.0047 107.017 28.126 106.42 28.126C105.748 28.126 105.132 27.958 104.572 27.622C104.021 27.2767 103.582 26.8007 103.256 26.194C102.938 25.578 102.78 24.8827 102.78 24.108ZM109.094 24.136C109.094 23.604 108.982 23.142 108.758 22.75C108.543 22.358 108.258 22.0593 107.904 21.854C107.549 21.6487 107.166 21.546 106.756 21.546C106.345 21.546 105.962 21.6487 105.608 21.854C105.253 22.05 104.964 22.344 104.74 22.736C104.525 23.1187 104.418 23.576 104.418 24.108C104.418 24.64 104.525 25.1067 104.74 25.508C104.964 25.9093 105.253 26.2173 105.608 26.432C105.972 26.6373 106.354 26.74 106.756 26.74C107.166 26.74 107.549 26.6373 107.904 26.432C108.258 26.2267 108.543 25.928 108.758 25.536C108.982 25.1347 109.094 24.668 109.094 24.136Z" fill="#FEFEFE"/>
</svg>
