<svg width="34" height="34" viewBox="0 0 34 34" fill="none" xmlns="http://www.w3.org/2000/svg">
<path d="M18.2268 4.25124L31.722 27.6262C31.8463 27.8416 31.9118 28.0859 31.9118 28.3346C31.9118 28.5832 31.8463 28.8275 31.722 29.0429C31.5977 29.2582 31.4188 29.4371 31.2035 29.5614C30.9881 29.6858 30.7438 29.7512 30.4952 29.7512H3.50483C3.25615 29.7512 3.01186 29.6858 2.79651 29.5614C2.58115 29.4371 2.40232 29.2582 2.27798 29.0429C2.15365 28.8275 2.08819 28.5832 2.0882 28.3346C2.0882 28.0859 2.15366 27.8416 2.27799 27.6262L15.7732 4.25124C15.8975 4.0359 16.0763 3.85707 16.2917 3.73275C16.507 3.60842 16.7513 3.54297 17 3.54297C17.2487 3.54297 17.4929 3.60842 17.7083 3.73275C17.9236 3.85707 18.1025 4.0359 18.2268 4.25124ZM15.5833 22.6679V25.5012H18.4167V22.6679H15.5833ZM15.5833 12.7512V19.8346H18.4167V12.7512H15.5833Z" fill="#E5CA3D"/>
</svg>
